<?xml version="1.0" standalone="no"?>
<!DOCTYPE svg PUBLIC "-//W3C//DTD SVG 1.1//EN" "http://www.w3.org/Graphics/SVG/1.1/DTD/svg11.dtd">
<svg width="400" height="100" version="1.1" xmlns="http://www.w3.org/2000/svg" style="background: #202020ff;">
<polygon fill="rgb(255,255,255)" stroke="none" points="0,55.88285 1,55.48632 2,55.08986 3,54.69352 4,54.29731 5,53.90128 6,53.50546 7,53.10987 8,52.71455 9,52.31953 10,51.92485 11,51.53052 12,51.13658 13,50.74306 14,50.34999 15,49.9574 16,49.56532 17,49.17377 18,48.78279 19,48.3924 20,48.00263 21,47.61351 22,47.22507 23,46.83733 24,46.45032 25,46.06406 26,45.67859 27,45.29391 28,44.91008 29,44.5271 30,44.145 31,43.76382 32,43.38356 33,43.00426 34,42.62593 35,42.24861 36,41.87232 37,41.49706 38,41.12288 39,40.7498 40,40.37783 41,40.00699 42,39.6373 43,39.2688 44,38.9015 45,38.5354 46,38.17055 47,37.80696 48,37.44464 49,37.08362 50,36.72391 51,36.36554 52,36.00851 53,35.65286 54,35.29858 55,34.94571 56,34.59427 57,34.24426 58,33.8957 59,33.54861 60,33.20301 61,32.85889 62,32.5163 63,32.17524 64,31.83572 65,31.49776 66,31.16137 67,30.82657 68,30.49336 69,30.16177 70,29.8318 71,29.50346 72,29.17678 73,28.85176 74,28.52841 75,28.20675 76,27.88678 77,27.56851 78,27.25196 79,26.93715 80,26.62407 81,26.31273 82,26.00315 83,25.69533 84,25.3893 85,25.08504 86,24.78257 87,24.48191 88,24.18305 89,23.88601 90,23.59079 91,23.29741 92,23.00586 93,22.71614 94,22.42829 95,22.14229 96,21.85816 97,21.57589 98,21.29549 99,21.01699 100,20.74036 101,20.46563 102,20.19279 103,19.92184 104,19.6528 105,19.38568 106,19.12046 107,18.85716 108,18.59577 109,18.33631 110,18.07877 111,17.82317 112,17.56949 113,17.31775 114,17.06795 115,16.82008 116,16.57415 117,16.33016 118,16.08812 119,15.84802 120,15.60986 121,15.37365 122,15.13939 123,14.90708 124,14.67672 125,14.44831 126,14.22184 127,13.99733 128,13.77477 129,13.55414 130,13.33548 131,13.11876 132,12.90399 133,12.69116 134,12.48028 135,12.27134 136,12.06434 137,11.85929 138,11.65618 139,11.45501 140,11.25576 141,11.05846 142,10.86308 143,10.66964 144,10.47812 145,10.28854 146,10.10086 147,9.915108 148,9.731275 149,9.54935 150,9.369337 151,9.191233 152,9.01503 153,8.840728 154,8.668322 155,8.49781 156,8.329195 157,8.162451 158,7.997596 159,7.83462 160,7.673508 161,7.514262 162,7.356894 163,7.201374 164,7.047713 165,6.895905 166,6.745934 167,6.597811 168,6.451523 169,6.307077 170,6.164443 171,6.023633 172,5.884635 173,5.747456 174,5.612075 175,5.478501 176,5.346709 177,5.216718 178,5.088502 179,4.962063 180,4.837399 181,4.714495 182,4.593354 183,4.473972 184,4.356325 185,4.240423 186,4.126263 187,4.013824 188,3.903115 189,3.794122 190,3.686827 191,3.58125 192,3.477359 193,3.375167 194,3.274661 195,3.175825 196,3.078663 197,2.983165 198,2.889317 199,2.797133 200,2.706587 201,2.617675 202,2.530396 203,2.444744 204,2.360702 205,2.278274 206,2.197438 207,2.118206 208,2.040559 209,1.964504 210,1.890004 211,1.817083 212,1.745719 213,1.67591 214,1.607645 215,1.540911 216,1.47571 217,1.412034 218,1.349878 219,1.289225 220,1.230085 221,1.172423 222,1.116258 223,1.061565 224,1.00835 225,0.956589 226,0.9062946 227,0.8574426 228,0.8100331 229,0.76406 230,0.7195175 231,0.6763875 232,0.6346703 233,0.5943596 234,0.5554438 235,0.5179226 236,0.4817784 237,0.447005 238,0.4136086 239,0.3815651 240,0.3508687 241,0.3215194 242,0.2934992 243,0.2668202 244,0.2414584 245,0.2174079 246,0.1946628 247,0.1732171 248,0.1530588 249,0.1341879 250,0.1165926 251,0.1002669 252,0.08519888 253,0.07138848 254,0.05881786 255,0.04749298 256,0.03738999 257,0.0285089 258,0.02085567 259,0.01440644 260,0.009149313 261,0.005090237 262,0.002217293 263,0.0005185604 264,0 265,0.0006377697 266,0.00243783 267,0.005376339 268,0.009459257 269,0.01468062 270,0.02102852 271,0.02849698 272,0.03706813 273,0.04674196 274,0.05752444 275,0.06939173 276,0.08233786 277,0.09636283 278,0.1114607 279,0.1276076 280,0.1448095 281,0.1630664 282,0.1823604 283,0.2026856 284,0.22403 285,0.2463937 286,0.2697766 287,0.2941549 288,0.3195286 289,0.3458977 290,0.3732443 291,0.4015684 292,0.4308581 293,0.4611194 294,0.4923224 295,0.5244732 296,0.5575716 297,0.5916059 298,0.6265521 299,0.6624341 300,0.6992221 301,0.7369161 302,0.775516 303,0.8149981 304,0.8553743 305,0.8966327 306,0.9387553 307,0.9817541 308,1.025599 309,1.070309 310,1.115859 311,1.162249 312,1.209468 313,1.257515 314,1.306385 315,1.356071 316,1.406568 317,1.457858 318,1.509947 319,1.562816 320,1.616478 321,1.670903 322,1.726109 323,1.782072 324,1.838785 325,1.896262 326,1.954478 327,2.013427 328,2.073109 329,2.133524 330,2.194655 331,2.256495 332,2.319044 333,2.382302 334,2.446252 335,2.510893 336,2.576208 337,2.642214 338,2.708882 339,2.776223 340,2.84422 341,2.912873 342,2.982175 343,3.052121 344,3.122705 345,3.193921 346,3.265768 347,3.338218 348,3.411305 349,3.484982 350,3.559273 351,3.634161 352,3.709644 353,3.785712 354,3.862357 355,3.939587 356,4.017383 357,4.095745 358,4.174667 359,4.254145 360,4.334176 361,4.414749 362,4.495859 363,4.577506 364,4.659677 365,4.742378 366,4.825592 367,4.909325 368,4.993558 369,5.07831 370,5.163545 371,5.249286 372,5.33551 373,5.422216 374,5.5094 375,5.597061 376,5.685192 377,5.773788 378,5.862838 379,5.952346 380,6.042308 381,6.13271 382,6.223554 383,6.314832 384,6.40654 385,6.498682 386,6.591243 387,6.684214 388,6.777608 389,6.871402 390,6.965613 391,7.060212 392,7.155216 393,7.250601 394,7.346374 395,7.442534 396,7.539063 397,7.635981 398,7.73325 399,7.8309 400,7.928908 400, 100 0, 100 " />
</svg>
